<svg data-v-423bf9ae="" xmlns="http://www.w3.org/2000/svg" viewBox="0 0 52.71656502970225 60" class="font"><!----><!----><defs data-v-423bf9ae=""><linearGradient data-v-423bf9ae="" gradientTransform="rotate(25)" id="8331a8fd-4a0c-43cc-98c8-192f714aa0f3" x1="0%" y1="0%" x2="100%" y2="0%"><stop data-v-423bf9ae="" offset="0%" style="stop-color: rgb(87, 72, 81); stop-opacity: 1;"></stop><stop data-v-423bf9ae="" offset="100%" style="stop-color: rgb(149, 168, 177); stop-opacity: 1;"></stop></linearGradient></defs><g data-v-423bf9ae="" id="b78f3d71-06c7-4663-9114-9a5f57fbd6ae" fill="url(#8331a8fd-4a0c-43cc-98c8-192f714aa0f3)" transform="matrix(6.172839942237944,0,0,6.172839942237944,-3.0859099340604175,-33.086422437721275)"><path d="M9.04 11.34C9.04 10.78 8.97 9.66 8.72 9.52C7.50 9.58 6.29 9.58 5.07 9.63C4.98 9.87 4.84 10.84 4.84 10.93C4.84 11.05 4.89 11.05 4.89 11.09C6.05 11.05 6.97 10.96 7.06 10.96C7.52 10.96 7.57 11.58 7.57 11.87C7.57 11.97 7.56 12.15 7.52 12.22C7.21 12.67 6.36 13.13 6.06 13.23C5.64 13.37 4.79 13.37 4.69 13.37C4.58 13.37 4.02 13.34 3.93 13.27C2.27 11.96 2.02 11.47 2.02 10.19C2.02 9.49 2.20 9.23 2.27 9.06C3.00 7.38 4.41 7.29 5.75 7.29C6.89 7.29 7.24 7.91 7.36 7.91C7.70 7.91 8.02 7.43 8.40 7.10C8.40 6.99 8.39 6.90 8.51 6.82L8.20 6.58C7.13 5.45 6.29 5.36 5.46 5.36C4.54 5.36 2.38 5.75 1.65 7.35C1.46 7.77 0.94 8.13 0.78 8.47C0.55 8.96 0.50 8.92 0.50 9.51C0.50 9.62 0.49 11.02 0.69 11.70C0.85 12.25 1.34 12.71 1.65 13.23C1.75 13.38 1.79 13.64 1.90 13.76C2.09 13.97 2.38 14.07 2.52 14.20C2.93 14.53 3.40 15.05 3.70 15.06C3.99 15.08 4.52 15.08 4.62 15.08C6.22 15.08 6.75 14.84 8.53 13.59C8.68 13.48 8.81 13.22 8.85 13.09C8.95 12.78 9.04 12.36 9.04 11.34Z"></path></g><!----><!----></svg>