<svg data-v-423bf9ae="" xmlns="http://www.w3.org/2000/svg" viewBox="0 0 57.352946568289944 60" class="font"><!----><!----><defs data-v-423bf9ae=""><linearGradient data-v-423bf9ae="" gradientTransform="rotate(25)" id="79481936-2405-42cf-8c79-6989d8117ea7" x1="0%" y1="0%" x2="100%" y2="0%"><stop data-v-423bf9ae="" offset="0%" style="stop-color: rgb(87, 72, 81); stop-opacity: 1;"></stop><stop data-v-423bf9ae="" offset="100%" style="stop-color: rgb(149, 168, 177); stop-opacity: 1;"></stop></linearGradient></defs><g data-v-423bf9ae="" id="178e7b58-73bb-4174-b952-2109dcf8c302" fill="url(#79481936-2405-42cf-8c79-6989d8117ea7)" transform="matrix(6.302521336710863,0,0,6.302521336710863,-2.584034196765849,-22.94117808836976)"><path d="M5.19 9.81L5.19 7.81L9.48 7.81L9.48 13.02L7.32 13.02L7.21 11.97L7.21 11.97Q6.50 13.16 4.70 13.16L4.70 13.16L4.70 13.16Q3.49 13.16 2.51 12.62L2.51 12.62L2.51 12.62Q1.54 12.08 0.97 11.02L0.97 11.02L0.97 11.02Q0.41 9.95 0.41 8.43L0.41 8.43L0.41 8.43Q0.41 6.16 1.67 4.90L1.67 4.90L1.67 4.90Q2.94 3.64 5.19 3.64L5.19 3.64L5.19 3.64Q6.92 3.64 7.93 4.23L7.93 4.23L7.93 4.23Q8.95 4.82 9.51 6.17L9.51 6.17L6.47 7.27L6.47 7.27Q6.29 6.09 5.31 6.09L5.31 6.09L5.31 6.09Q4.49 6.09 4.12 6.64L4.12 6.64L4.12 6.64Q3.74 7.20 3.74 8.40L3.74 8.40L3.74 8.40Q3.74 9.69 4.14 10.24L4.14 10.24L4.14 10.24Q4.55 10.79 5.42 10.79L5.42 10.79L5.42 10.79Q6.03 10.79 6.39 10.55L6.39 10.55L6.39 10.55Q6.75 10.30 6.75 9.83L6.75 9.83L6.75 9.81L5.19 9.81Z"></path></g><!----><!----></svg>