<svg data-v-423bf9ae="" xmlns="http://www.w3.org/2000/svg" viewBox="0 0 34.42622878453977 60" class="font"><!----><!----><defs data-v-423bf9ae=""><linearGradient data-v-423bf9ae="" gradientTransform="rotate(25)" id="85b99e54-19ee-43f7-996c-d172acad1037" x1="0%" y1="0%" x2="100%" y2="0%"><stop data-v-423bf9ae="" offset="0%" style="stop-color: rgb(95, 37, 23); stop-opacity: 1;"></stop><stop data-v-423bf9ae="" offset="100%" style="stop-color: rgb(255, 237, 181); stop-opacity: 1;"></stop></linearGradient></defs><g data-v-423bf9ae="" id="ed2af04e-4e0e-4525-9daf-b5fdf5929846" fill="url(#85b99e54-19ee-43f7-996c-d172acad1037)" transform="matrix(5.785920989599432,0,0,5.785920989599432,-2.4300871024420694,-21.234329996423497)"><path d="M3.47 9.87L3.47 9.87L3.23 9.88L3.23 9.88Q2.83 9.88 2.58 9.67L2.58 9.67L2.58 9.67Q2.32 9.45 2.32 9.31L2.32 9.31L2.32 9.31Q2.32 9.17 2.51 9.08L2.51 9.08L2.51 9.08Q2.69 8.99 3.70 8.53L3.70 8.53L3.70 8.53Q4.72 8.06 5.12 7.87L5.12 7.87L5.12 7.87Q5.52 7.67 5.71 7.67L5.71 7.67L5.71 7.67Q5.89 7.67 6.13 7.88L6.13 7.88L6.13 7.88Q6.37 8.08 6.37 8.27L6.37 8.27L6.37 8.27Q6.37 8.46 6.30 8.57L6.30 8.57L6.30 8.57Q6.23 8.69 6.08 8.80L6.08 8.80L6.08 8.80Q5.94 8.90 5.83 8.97L5.83 8.97L5.83 8.97Q5.73 9.03 5.52 9.12L5.52 9.12L5.52 9.12Q5.32 9.21 5.28 9.24L5.28 9.24L5.28 9.24Q4.97 9.38 4.97 9.55L4.97 9.55L5.01 9.67L5.01 9.67Q5.38 10.36 5.38 11.03L5.38 11.03L5.38 11.03Q5.38 12.04 4.66 13.12L4.66 13.12L4.66 13.12Q4.02 14.04 2.97 14.04L2.97 14.04L2.97 14.04Q2.27 14.04 1.68 13.77L1.68 13.77L1.68 13.77Q1.09 13.50 0.85 12.92L0.85 12.92L0.85 12.92Q0.42 11.83 0.42 10.60L0.42 10.60L0.42 10.60Q0.42 9.70 0.55 9.16L0.55 9.16L0.55 9.16Q0.67 8.61 0.73 8.32L0.73 8.32L0.73 8.32Q0.80 8.02 0.98 7.54L0.98 7.54L0.98 7.54Q1.16 7.06 1.23 6.85L1.23 6.85L1.23 6.85Q1.30 6.64 1.55 6.08L1.55 6.08L1.55 6.08Q1.79 5.53 1.85 5.40L1.85 5.40L1.85 5.40Q2.24 4.52 2.51 3.99L2.51 3.99L2.51 3.99Q2.65 3.67 3.04 3.67L3.04 3.67L3.04 3.67Q3.44 3.67 3.89 3.81L3.89 3.81L3.89 3.81Q4.34 3.96 4.55 4.19L4.55 4.19L4.55 4.19Q4.94 4.61 4.94 5.00L4.94 5.00L4.94 5.00Q4.94 5.40 4.44 6.20L4.44 6.20L4.44 6.20Q4.28 6.43 4.28 6.87L4.28 6.87L4.28 6.87Q4.26 7.07 4.07 7.07L4.07 7.07L4.07 7.07Q3.96 7.07 3.88 7L3.88 7L3.88 7Q3.79 6.93 3.77 6.85L3.77 6.85L3.77 6.85Q3.75 6.78 3.72 6.64L3.72 6.64L3.72 6.64Q3.68 6.50 3.67 6.45L3.67 6.45L3.67 6.45Q3.53 6.06 3.53 5.17L3.53 5.17L3.53 5.17Q3.53 4.98 3.42 4.98L3.42 4.98L3.42 4.98Q3.30 4.98 2.83 6.19L2.83 6.19L2.83 6.19Q1.72 8.93 1.72 10.93L1.72 10.93L1.72 10.93Q1.72 12.01 1.89 12.68L1.89 12.68L1.89 12.68Q1.96 12.98 2.25 12.98L2.25 12.98L2.25 12.98Q2.55 12.98 2.88 12.54L2.88 12.54L2.88 12.54Q3.82 11.33 3.82 10.25L3.82 10.25L3.82 10.25Q3.82 9.87 3.47 9.87Z"></path></g><!----><!----></svg>