<svg data-v-423bf9ae="" xmlns="http://www.w3.org/2000/svg" viewBox="0 0 33.15487406438943 60" class="font"><!----><!----><!----><g data-v-423bf9ae="" id="915ea21d-417c-4ce4-a34a-28926445ff86" fill="#94AAA3" transform="matrix(5.736137646384677,0,0,5.736137646384677,-3.384321630254501,-0.8030600934767271)"><path d="M6.37 4.00L6.37 8.65L6.37 8.65Q6.24 9.07 6.00 9.43L6.00 9.43L6.00 9.43Q5.75 9.79 5.40 10.05L5.40 10.05L5.40 10.05Q5.04 10.32 4.58 10.46L4.58 10.46L4.58 10.46Q4.12 10.60 3.58 10.60L3.58 10.60L3.58 10.60Q2.91 10.60 2.36 10.42L2.36 10.42L2.36 10.42Q1.81 10.23 1.41 9.88L1.41 9.88L1.41 9.88Q1.02 9.53 0.81 9.03L0.81 9.03L0.81 9.03Q0.59 8.53 0.59 7.87L0.59 7.87L0.59 2.87L0.59 2.87Q0.59 2.31 0.73 1.81L0.73 1.81L0.73 1.81Q0.87 1.32 1.18 0.95L1.18 0.95L1.18 0.95Q1.50 0.57 2.02 0.36L2.02 0.36L2.02 0.36Q2.53 0.14 3.28 0.14L3.28 0.14L5.81 0.14L5.81 2.32L3.28 2.32L3.28 2.32Q3.04 2.32 2.94 2.51L2.94 2.51L2.94 2.51Q2.84 2.69 2.84 2.87L2.84 2.87L2.84 7.84L2.84 7.84Q2.84 8.04 3.00 8.18L3.00 8.18L3.00 8.18Q3.16 8.33 3.39 8.39L3.39 8.39L3.39 8.39Q3.61 8.46 3.86 8.41L3.86 8.41L3.86 8.41Q4.12 8.37 4.31 8.19L4.31 8.19L4.31 5.99L3.51 5.99L3.51 4.00L6.37 4.00Z"></path></g><!----><!----></svg>